PathFileType	4	(X/Y/Z)	C:\Users\chris\Documents\GitHub\baseballds\vids\pitch0_Sports2D\pitch0_Sports2D_m_person00.trc
DataRate	CameraRate	NumFrames	NumMarkers	Units	OrigDataRate	OrigDataStartFrame	OrigNumFrames
30	30	8	22	m	30	13	110
Frame#	Time	Hip			RHip			RKnee			RAnkle			RBigToe			RSmallToe			RHeel			LHip			LKnee			LAnkle			LBigToe			LSmallToe			LHeel			Neck			Head			Nose			RShoulder			RElbow			RWrist			LShoulder			LElbow			LWrist		
		X1	Y1	Z1	X2	Y2	Z2	X3	Y3	Z3	X4	Y4	Z4	X5	Y5	Z5	X6	Y6	Z6	X7	Y7	Z7	X8	Y8	Z8	X9	Y9	Z9	X10	Y10	Z10	X11	Y11	Z11	X12	Y12	Z12	X13	Y13	Z13	X14	Y14	Z14	X15	Y15	Z15	X16	Y16	Z16	X17	Y17	Z17	X18	Y18	Z18	X19	Y19	Z19	X20	Y20	Z20	X21	Y21	Z21	X22	Y22	Z22
13	0.43333333333333335	1.1856562957633388	0.917555671710316	0.0	1.0763220929203328	0.895650302805178	0.0	1.0684338243330576	0.4610222702389199	0.0	1.0790805096589833	0.09828460981143029	0.0	1.0809384681495233	-0.04483978117329488	0.0	1.0182167281598553	-0.02429177835809993	0.0	1.0979382259947756	0.04846823972157667	0.0	1.3013222270016847	0.9031206588822062	0.0	1.3580787131511152	0.4844166543734073	0.0	1.4306984810675447	0.1387592228804772	0.0	1.3436932640836898	-0.004171042285723289	0.0	1.4223518168333131	0.0055983565614737725	0.0	1.4605793355471377	0.0937336498037121	0.0	1.15022589302967	1.5700041859403469	0.0	1.1745311010226063	1.8608733058810871	0.0	1.2770697129202508	1.6948559966290215	0.0	0.9247813534896144	1.44311494817106	0.0	0.900751052434792	1.1521936065808307	0.0	1.0790000612667703	1.0271014197002692	0.0	1.3644858234534425	1.4587460939549466	0.0	1.4350808119188583	1.1761502559924075	0.0	1.323421954165862	0.9949711336384804	0.0
14	0.4666666666666667	1.188020133007077	0.9163412429022337	0.0	1.078264380779082	0.8952905733688376	0.0	1.0696643581051746	0.46192722609615494	0.0	1.0798786376685474	0.09919716617996524	0.0	1.081302233599877	-0.04467154185368123	0.0	1.0191091803434915	-0.02388948654514905	0.0	1.098960764300664	0.04728170054162269	0.0	1.3031360522696611	0.902339415249313	0.0	1.3591904667199621	0.48256200312175657	0.0	1.4312345675950673	0.13815527771910177	0.0	1.3458541530279504	-0.003393870862740848	0.0	1.4226043167012246	0.0058108529034366484	0.0	1.4614800398007548	0.0938221328153579	0.0	1.1529378166780437	1.5711561741161315	0.0	1.1770630688514045	1.8605512142108138	0.0	1.278031141716839	1.6947824133951572	0.0	0.9266831284195991	1.4413821520234527	0.0	0.9017576836201194	1.1528841107841385	0.0	1.082326789116066	1.0256927181452242	0.0	1.365111149897437	1.4590135560226851	0.0	1.4381156501137402	1.175974879160995	0.0	1.3246405876648473	0.9925233690552694	0.0
15	0.5	1.1900790104563326	0.9168115788928566	0.0	1.0794443501851143	0.8958818009177327	0.0	1.0712258017545429	0.4620331972511022	0.0	1.079838452034837	0.09993666880619284	0.0	1.08063978221861	-0.04479986613799658	0.0	1.0177333015859469	-0.0243289834157634	0.0	1.0987134858401395	0.04739940442581171	0.0	1.3055621649798108	0.9024664950882828	0.0	1.3593164711159582	0.48197670104789964	0.0	1.4317345031116044	0.13775582350525423	0.0	1.3488604878087875	-0.0036157748223967475	0.0	1.424499648662741	0.005504008301041626	0.0	1.4615930155695593	0.09475581390807473	0.0	1.1561174008751671	1.5714330565437726	0.0	1.1797992258482186	1.8607973028447513	0.0	1.2807965183333163	1.6938734994960483	0.0	0.9285102482360847	1.441417747227871	0.0	0.9042578474808274	1.1521954887427956	0.0	1.0850113658669815	1.0241729223388831	0.0	1.3672805066772278	1.4586126229811438	0.0	1.4401696302505351	1.1743375018372584	0.0	1.3270973812350195	0.9924626188977808	0.0
16	0.5333333333333333	1.1921222721141578	0.9176475382410505	0.0	1.0810687734502538	0.8956441762556695	0.0	1.0732363528227218	0.4616328310471967	0.0	1.0803752401436026	0.1010338696280393	0.0	1.0816821228204034	-0.04414454157724932	0.0	1.017295550118189	-0.023979970359090066	0.0	1.0984637005436046	0.0495625913441525	0.0	1.3080418308330484	0.9028422009445392	0.0	1.3590019043049053	0.4822868534126901	0.0	1.4327605725060355	0.13692888584437224	0.0	1.3496838967809324	-0.0033830935482498142	0.0	1.4257075151756953	0.005109086834711359	0.0	1.4616702357267353	0.09508270361079771	0.0	1.1587590798570353	1.5711476294993345	0.0	1.1825951669304242	1.8603615651591516	0.0	1.2845375617859305	1.6925536664288767	0.0	0.9305008336366697	1.4426686016668349	0.0	0.9069790886224826	1.151337380099399	0.0	1.0865660855777153	1.0234936017890448	0.0	1.369482603224485	1.4579295370029892	0.0	1.4419180708437858	1.1731357723172484	0.0	1.3305674396958853	0.9942831341142072	0.0
17	0.5666666666666667	1.193790091398062	0.9174066204699303	0.0	1.083311353886454	0.8944001504265968	0.0	1.0757294354405005	0.46231911575871015	0.0	1.0818775319029974	0.10152743536323357	0.0	1.085021526908398	-0.043518734530270255	0.0	1.0202851568789608	-0.02314683888229425	0.0	1.0989103558473579	0.05069321305249603	0.0	1.3099951677189303	0.9029488598584919	0.0	1.3596057079259949	0.4826242547338314	0.0	1.4344197184178782	0.13535568875000886	0.0	1.3476039858816695	-0.002332689966015787	0.0	1.425166676943048	0.005009639693752056	0.0	1.4624231754742167	0.0942516443415887	0.0	1.1607668312150337	1.5719996706084884	0.0	1.1867154974989522	1.8593016099136996	0.0	1.2869920883960195	1.6924597596216686	0.0	0.932234798632601	1.443868242514618	0.0	0.9083809545180351	1.151749777338516	0.0	1.087437540014444	1.0243577367130008	0.0	1.3699604522051336	1.4590692253903017	0.0	1.4447451141153131	1.1744972649178356	0.0	1.3332860066656116	0.9949036785462275	0.0
18	0.6	1.1948818130877195	0.9165741748138043	0.0	1.0851039781534724	0.8941271455681514	0.0	1.07845855031828	0.4639605453562589	0.0	1.083050377640854	0.10097090219119885	0.0	1.087923747985543	-0.0435873871291486	0.0	1.0238286145778432	-0.02310433019184246	0.0	1.0994914350484013	0.05075752514617417	0.0	1.3109321627588335	0.9030205639777888	0.0	1.3615524088398494	0.4831545164560983	0.0	1.435330501302377	0.13423830450750052	0.0	1.3457623341289136	-0.0023435996809662144	0.0	1.4249534486278586	0.004773139031505881	0.0	1.4630532847682587	0.09253545945019209	0.0	1.1631824416718415	1.5729714024124428	0.0	1.1917598220683243	1.8593173347790404	0.0	1.2880770355978868	1.693766985425872	0.0	0.9337267032872651	1.4446181365242805	0.0	0.9089775560662896	1.1532600182311945	0.0	1.0891116901327298	1.0253730011082298	0.0	1.3704697749426393	1.4610297851052207	0.0	1.447953630501132	1.1762930878793862	0.0	1.3341943982243525	0.99407839604729	0.0
19	0.6333333333333333	1.1961685989259279	0.9163189939245534	0.0	1.0863511526987661	0.8953562592664528	0.0	1.0807933950541952	0.46470386751547677	0.0	1.0833251849359902	0.10008940890213365	0.0	1.0888857922955697	-0.043880286184010193	0.0	1.0247677505872497	-0.023751342749689017	0.0	1.1001526072865626	0.05181144350425565	0.0	1.3114623883998255	0.9035180445659658	0.0	1.3639747375819895	0.48386511250233094	0.0	1.4351099746107772	0.1337718042987781	0.0	1.346674351033608	-0.003940228560516326	0.0	1.4263827229688455	0.0038492094134288	0.0	1.4633214450291832	0.09012348461128064	0.0	1.1662545189629456	1.5717553626030571	0.0	1.1957190094896255	1.8608864439903745	0.0	1.2899881849182833	1.695109830109528	0.0	0.9357409691104437	1.4450448045324835	0.0	0.9104024274730105	1.154913289217036	0.0	1.0921616442960291	1.0251256864642184	0.0	1.3727756438409615	1.461432917864771	0.0	1.4502573460261288	1.1757687599979445	0.0	1.334824083509032	0.9939614179230281	0.0
20	0.6666666666666666	1.1982789300248375	0.9161971191928033	0.0	1.0881182162232137	0.8959247359730628	0.0	1.0821949552612231	0.4635800582635496	0.0	1.0837645408233527	0.09915943080376395	0.0	1.0887606987600917	-0.044648767668891864	0.0	1.0247468165083295	-0.024143968232454054	0.0	1.1016055421581448	0.05205651125213831	0.0	1.313131934714601	0.9035889074457489	0.0	1.366346252235462	0.4836023008138667	0.0	1.4356364037709262	0.1332281085665122	0.0	1.3492171804601707	-0.006046361982802954	0.0	1.4282897719858194	0.0021930866743320255	0.0	1.4642409455967855	0.08835642071435126	0.0	1.1688020914566737	1.569281552532352	0.0	1.1981042016673895	1.8622614186788706	0.0	1.2936956821406431	1.695314269012357	0.0	0.938470230551839	1.44528214157022	0.0	0.9130608922631629	1.1563426434316875	0.0	1.0949673223242786	1.0253042488235617	0.0	1.3754949773317866	1.4606783768572855	0.0	1.4521846661656819	1.1747630524482187	0.0	1.337667499838653	0.994642618914848	0.0
